<svg id="fca5cab3-1765-481a-9410-f338bd0aef5d" data-name="Layer 1" xmlns="http://www.w3.org/2000/svg" viewBox="0 0 294.13 297.19"><defs><style>.eb3b7d65-dbb4-4e4b-ac64-d034e571443b{fill:#909090;}.ea4ab7a7-3fc6-4988-8d35-ca0c3039ad8f{fill:#fff;}.a4cfad63-22b7-480a-a9d9-16fc265a6483{fill:#1d1d1b;}.b40dff09-93bb-4da4-ad48-497375cb6b91{fill:#8b8b8c;}</style></defs><path class="eb3b7d65-dbb4-4e4b-ac64-d034e571443b" d="M101.63,140a3.94,3.94,0,0,1-3.16-1.6L88.35,124.59a3.91,3.91,0,0,1,.85-5.47l17.56-12.85a3.93,3.93,0,0,1,2.31-.75,3.88,3.88,0,0,1,2.68,1.06,5.91,5.91,0,0,0,9.38-6.87,3.88,3.88,0,0,1,1.22-4.84l1.24-.92a4,4,0,0,1,2.32-.75,3.83,3.83,0,0,1,2.31.76,2.15,2.15,0,0,0,1.29.43,2.11,2.11,0,0,0,1.26-.41,2.15,2.15,0,0,0,.76-2.44,3.91,3.91,0,0,1,6.38-4.1,5.91,5.91,0,0,0,9.38-6.87,3.89,3.89,0,0,1,1.21-4.84l.56-.41a4,4,0,0,1,2.32-.76,3.84,3.84,0,0,1,2.31.77,2.17,2.17,0,0,0,1.29.43,2.14,2.14,0,0,0,2-2.85,3.88,3.88,0,0,1,1.39-4.41l8.4-6.15.08-.05a14.59,14.59,0,0,1,7.56-2.17,11.38,11.38,0,0,1,7.14,2.37,11.81,11.81,0,0,1,4.16,8.6,14.71,14.71,0,0,1-4.33,11.14l-.13.12-77.32,56.9a3.88,3.88,0,0,1-2.31.76Z"/><path class="ea4ab7a7-3fc6-4988-8d35-ca0c3039ad8f" d="M174.42,62.45a9.06,9.06,0,0,1,5.69,1.86c4.17,3.35,4.78,11.12-.37,16.29l-77.17,56.79a1.6,1.6,0,0,1-.94.31,1.58,1.58,0,0,1-1.29-.65L90.22,123.22a1.6,1.6,0,0,1,.35-2.23l17.56-12.85a1.56,1.56,0,0,1,.94-.31,1.63,1.63,0,0,1,1.09.43,8.23,8.23,0,0,0,13.06-9.56,1.59,1.59,0,0,1,.49-2l1.25-.91a1.6,1.6,0,0,1,1-.32,1.5,1.5,0,0,1,.92.31,4.51,4.51,0,0,0,2.68.89,4.46,4.46,0,0,0,4.21-5.93,1.58,1.58,0,0,1,.57-1.78,1.56,1.56,0,0,1,.94-.31,1.59,1.59,0,0,1,1.08.43,8.23,8.23,0,0,0,13.07-9.56,1.59,1.59,0,0,1,.49-2l.56-.41a1.59,1.59,0,0,1,1.87,0,4.46,4.46,0,0,0,6.88-5,1.56,1.56,0,0,1,.57-1.77l8.32-6.09a12.28,12.28,0,0,1,6.35-1.83m0-4.64v0a16.86,16.86,0,0,0-8.76,2.51l-.17.11-.16.11L157,66.63a6.15,6.15,0,0,0-2.36,6.55,6.21,6.21,0,0,0-7,.27l-.56.41a6.22,6.22,0,0,0-1.93,7.72,3.6,3.6,0,0,1-5.7,4.18,6.23,6.23,0,0,0-10.31,6.06,6.08,6.08,0,0,0-3.28-.94,6.28,6.28,0,0,0-3.69,1.2L121,93a6.2,6.2,0,0,0-1.93,7.72,3.6,3.6,0,0,1-5.71,4.18,6.23,6.23,0,0,0-8-.5L87.83,117.25A6.24,6.24,0,0,0,86.48,126L96.6,139.79a6.28,6.28,0,0,0,5,2.55,6.2,6.2,0,0,0,3.67-1.2l77.19-56.8.29-.22.25-.25A17,17,0,0,0,188,71a14.09,14.09,0,0,0-5-10.28,13.77,13.77,0,0,0-8.59-2.88Z"/><path class="a4cfad63-22b7-480a-a9d9-16fc265a6483" d="M74.61,182.24l-5.48,4a16.55,16.55,0,0,1-18.81.46,29.72,29.72,0,0,1,8.46-4.13A29,29,0,0,1,74.61,182.24Z"/><path class="a4cfad63-22b7-480a-a9d9-16fc265a6483" d="M124.53,145.71,94.8,167.46l-12.51,9.16-3,2.15a1.31,1.31,0,0,1,0-.44c.21-.88.39-1.77.57-2.66a37.33,37.33,0,0,0-12.36-2.23A16.48,16.48,0,0,1,56.68,175l-1.12.33a42.74,42.74,0,0,0-5.39,2.29,38.74,38.74,0,0,0-4.94,3.07,4,4,0,0,0-.39.3l-8.28-11.31-4.84-6.63-1.41-1.91a16.56,16.56,0,0,1,3.57-23.07l13.44-9.82,23.12-16.93,6.43-4.7,4.68-3.43,1.6-1.17,3-2.22,3.1-2.27a3.36,3.36,0,0,1,4.67.72L96.71,102l6.17,8.42.73,1,12,16.37L125.26,141A3.37,3.37,0,0,1,124.53,145.71Z"/><rect class="b40dff09-93bb-4da4-ad48-497375cb6b91" x="89.03" y="132.24" width="19.29" height="17.92" rx="4.27" transform="translate(154.36 -21.82) rotate(53.81)"/><path class="eb3b7d65-dbb4-4e4b-ac64-d034e571443b" d="M80.86,110.77a3.85,3.85,0,0,1-1.76-.43l-15.3-7.72a3.91,3.91,0,0,1-1.72-5.26l9.81-19.43a3.9,3.9,0,0,1,3.49-2.14,3.75,3.75,0,0,1,1.1.16,5.73,5.73,0,0,0,1.65.24,5.92,5.92,0,0,0,3.59-10.62A3.9,3.9,0,0,1,80.6,60.7l.7-1.38a3.87,3.87,0,0,1,3.47-2.15,3.66,3.66,0,0,1,.65.06,2.19,2.19,0,0,0,.36,0,2.12,2.12,0,0,0,1.92-1.18,2.15,2.15,0,0,0-.43-2.51A3.91,3.91,0,0,1,90,46.86a3.66,3.66,0,0,1,1.1.16,5.92,5.92,0,0,0,5.25-10.38,3.9,3.9,0,0,1-1.12-4.87l.31-.61A3.87,3.87,0,0,1,99,29a4.89,4.89,0,0,1,.66,0l.36,0a2.14,2.14,0,0,0,1.48-3.68,3.93,3.93,0,0,1-.76-4.57l4.69-9.28,0-.08a13.44,13.44,0,0,1,11.11-6.71,10.19,10.19,0,0,1,2.08.21,11.78,11.78,0,0,1,7.61,5.78,14.68,14.68,0,0,1,1.19,11.88l0,.17-43.06,85.8a3.91,3.91,0,0,1-3.5,2.16Z"/><path class="ea4ab7a7-3fc6-4988-8d35-ca0c3039ad8f" d="M116.59,7.09a7.85,7.85,0,0,1,1.61.16c5.23,1.09,9.3,7.74,7.07,14.68l-43,85.64a1.59,1.59,0,0,1-1.42.88,1.69,1.69,0,0,1-.72-.17l-15.29-7.73a1.59,1.59,0,0,1-.7-2.14L74,79a1.6,1.6,0,0,1,1.42-.87,1.72,1.72,0,0,1,.44.06,8,8,0,0,0,2.31.34,8.24,8.24,0,0,0,5-14.79,1.57,1.57,0,0,1-.45-2l.7-1.38a1.57,1.57,0,0,1,1.4-.88l.26,0a3.81,3.81,0,0,0,.75.07,4.46,4.46,0,0,0,3.09-7.69A1.59,1.59,0,0,1,90,49.18a1.74,1.74,0,0,1,.45.06,8,8,0,0,0,2.31.33,8.23,8.23,0,0,0,5-14.78,1.57,1.57,0,0,1-.45-2l.31-.62a1.59,1.59,0,0,1,1.4-.88l.26,0a4.87,4.87,0,0,0,.76.06,4.46,4.46,0,0,0,3.08-7.68,1.58,1.58,0,0,1-.29-1.84l4.64-9.2a11.2,11.2,0,0,1,9.14-5.6m0-4.64h0a15.76,15.76,0,0,0-13.08,7.81l-.1.17-.09.17-4.65,9.2a6.17,6.17,0,0,0,.87,6.91l-.54,0a6.19,6.19,0,0,0-5.54,3.42l-.31.62a6.22,6.22,0,0,0,1.79,7.76,3.6,3.6,0,0,1-2.19,6.45,3.37,3.37,0,0,1-1-.15A6.51,6.51,0,0,0,90,44.54a6.23,6.23,0,0,0-4.67,10.34,5.07,5.07,0,0,0-.55,0,6.18,6.18,0,0,0-5.54,3.43l-.7,1.38a6.23,6.23,0,0,0,1.79,7.76,3.6,3.6,0,0,1-2.19,6.45,3.41,3.41,0,0,1-1-.15,6.49,6.49,0,0,0-1.75-.25,6.21,6.21,0,0,0-5.56,3.42L60,96.32a6.23,6.23,0,0,0,2.75,8.37l15.29,7.72a6.25,6.25,0,0,0,2.81.67,6.18,6.18,0,0,0,5.56-3.42l43-85.65.16-.32.11-.34a17.05,17.05,0,0,0-1.4-13.76,14.11,14.11,0,0,0-9.14-6.88,12.68,12.68,0,0,0-2.55-.26Z"/><path class="a4cfad63-22b7-480a-a9d9-16fc265a6483" d="M59.9,177.65a19,19,0,0,1-3.68-.37,18.64,18.64,0,0,1-4.76-1.64l-2.54-1.28-2.27-1.16-16-8.07-3-1.53a18.84,18.84,0,0,1-8.31-25.27l31-61.28a5.64,5.64,0,0,1,7.61-2.49l14.58,7.35L105.2,98.45a5.71,5.71,0,0,1,2.48,7.62L105,111.5l-1.23,2.42-13.9,27.5L76.74,167.34a18.54,18.54,0,0,1-8.11,8.16A18.94,18.94,0,0,1,59.9,177.65Z"/><path class="ea4ab7a7-3fc6-4988-8d35-ca0c3039ad8f" d="M55.35,76.26a3.34,3.34,0,0,1,1.5.36L71.43,84l18.1,9.15,14.62,7.39a3.16,3.16,0,0,1,1.47,1.51,3.23,3.23,0,0,1,0,3l-2.74,5.44-1.23,2.43L93.9,128.23l-3.62,7.15-2.53,5-4.59,9.1L75.7,164.25l-1,2a16.27,16.27,0,0,1-7.11,7.15,16.44,16.44,0,0,1-7.66,1.89,16.74,16.74,0,0,1-3.22-.32,16.25,16.25,0,0,1-4.17-1.44L50,172.28l-2.26-1.14-7.64-3.86-8.34-4.22-3-1.53a16.54,16.54,0,0,1-7.28-22.16l31-61.27a3.35,3.35,0,0,1,3-1.84m0-4.63h0A8,8,0,0,0,48.22,76l-31,61.28a21.16,21.16,0,0,0,9.33,28.39l3,1.53L38,171.42l7.64,3.85,2.25,1.15,2.56,1.29A21.16,21.16,0,0,0,59.9,180a21.25,21.25,0,0,0,9.81-2.42,20.84,20.84,0,0,0,9.1-9.17l1-2,7.46-14.78,4.59-9.1,2.53-5L98,130.32,105.79,115l1.22-2.42,2.75-5.46a8,8,0,0,0-3.53-10.71L91.62,89,73.53,79.85,58.94,72.49a7.85,7.85,0,0,0-3.59-.86Z"/><rect class="b40dff09-93bb-4da4-ad48-497375cb6b91" x="70.9" y="103.77" width="19.29" height="17.92" rx="4.27" transform="translate(59.49 -24.21) rotate(26.81)"/><path class="b40dff09-93bb-4da4-ad48-497375cb6b91" d="M103.75,241.2H101.6c.09-.21.14-.41.21-.62Z"/><path class="b40dff09-93bb-4da4-ad48-497375cb6b91" d="M113.05,243.51l.93-3.1a3.5,3.5,0,0,1,3-2.58c1.84-.17,3.63-.38,5.31-.62,1.5-.22,3-.48,4.51-.79.23-2,.36-4,.39-5.94a54.87,54.87,0,0,0-.17-5.91c-.08-1-.19-2.1-.33-3.14-1.41-.26-2.93-.5-4.53-.71s-3.35-.41-4.92-.53l-.4,0a3.48,3.48,0,0,1-3.1-2.64c-.21-.91-.47-1.77-.75-2.68l-.28-.9c-.13-.34-.25-.68-.37-1-.3-.84-.59-1.64-.93-2.4a3.52,3.52,0,0,1,.92-4.07c.68-.59,1.36-1.21,2-1.84s1.23-1.16,1.84-1.75c1.24-1.23,2.28-2.29,3.2-3.29-.5-.91-1.08-1.87-1.75-2.93a61.46,61.46,0,0,0-7.14-9.14c-1.47.7-2.82,1.38-4.1,2.07-.38.2-.74.41-1.1.62-1.1.61-2.24,1.28-3.51,2.06a3.37,3.37,0,0,1-1.78.5,3.63,3.63,0,0,1-2.26-.8l-1.52-1.22c-.23-.18-.5-.38-.78-.57l-.74-.55c-.32-.25-.65-.46-1-.68l-.73-.48c-.42-.28-.84-.56-1.27-.8A3.55,3.55,0,0,1,90,185.09a3.41,3.41,0,0,1,0-1.27c.21-.87.39-1.73.55-2.59s.33-1.75.48-2.63c.25-1.48.47-3,.65-4.54-1.29-.6-2.6-1.15-3.9-1.64a64.05,64.05,0,0,0-10.35-2.91c-.73,1.34-1.42,2.69-2.1,4.09-.76,1.58-1.49,3.22-2.17,4.87a3.55,3.55,0,0,1-3.3,2.14h-.16l-2-.1-2.19,0-1,0-1.56.08-.25,0c-.14,0-.29,0-.43,0l-.15,0H62a3.48,3.48,0,0,1-3.22-2.11c-.07-.18-.14-.31-.2-.45l-.6-1.34v-54.1c0-9.36,7-17,15.6-17h182c8.61,0,15.61,7.61,15.61,17v104c-.1,9.29-7.1,16.82-15.61,16.82Z"/><path class="ea4ab7a7-3fc6-4988-8d35-ca0c3039ad8f" d="M255.64,108c7.33,0,13.29,6.56,13.29,14.65v104c-.08,8-6,14.5-13.29,14.5H116.17l0-.11a1.19,1.19,0,0,1,1-.94c1.8-.16,3.62-.37,5.44-.64s3.6-.59,5.41-1a1.24,1.24,0,0,0,.83-.71,1.62,1.62,0,0,0,.17-.54,63.79,63.79,0,0,0,.47-6.76,57.16,57.16,0,0,0-.18-6.14c-.1-1.29-.24-2.56-.42-3.84a1.39,1.39,0,0,0-1-1.24c-1.79-.35-3.64-.64-5.45-.88s-3.37-.42-5-.55l-.37,0a1.18,1.18,0,0,1-1-.9c-.29-1.27-.71-2.51-1.08-3.75s-.85-2.44-1.38-3.64a1.18,1.18,0,0,1,.3-1.35c.72-.63,1.43-1.27,2.12-1.91s1.25-1.19,1.88-1.8c1.3-1.28,2.61-2.61,3.84-4a1.41,1.41,0,0,0,0-1.58c-.65-1.21-1.35-2.39-2.08-3.55a65.35,65.35,0,0,0-7.84-9.93,1.62,1.62,0,0,0-1.11-.5,1,1,0,0,0-.43.09c-1.68.79-3.32,1.6-4.93,2.47l-1.16.65c-1.2.67-2.39,1.38-3.56,2.1a1.07,1.07,0,0,1-.57.16,1.31,1.31,0,0,1-.81-.3l-1.52-1.22c-.51-.39-1-.76-1.57-1.16s-1.06-.73-1.6-1.09-1.09-.73-1.64-1a1.22,1.22,0,0,1-.58-.84,1.31,1.31,0,0,1,0-.44c.21-.88.39-1.77.57-2.66s.33-1.79.48-2.69c.31-1.8.56-3.63.77-5.47a1.41,1.41,0,0,0-.9-1.31q-2.25-1.06-4.57-1.95a66.12,66.12,0,0,0-11.34-3.13l-.27,0a1.39,1.39,0,0,0-1.22.6c-.9,1.63-1.74,3.24-2.54,4.89s-1.54,3.33-2.22,5a1.24,1.24,0,0,1-1.16.71h0L68,178.19H65.65c-.53,0-1.05,0-1.58.06l-1.11.05-.82.07H62a1.18,1.18,0,0,1-1.09-.7c-.07-.17-.15-.35-.23-.52l-.38-.86v-53.6c0-8.09,5.94-14.65,13.28-14.65h182m0-4.64H73.6c-9.88,0-17.92,8.65-17.92,19.29v54.61l.42.92.36.79,0,.05,0,0,.13.28v.05l0,0A5.82,5.82,0,0,0,62,183a4.71,4.71,0,0,0,.53,0h.16l.31,0,.25,0,.46,0,.58,0,.45,0c.3,0,.59,0,.89,0h2.18l1.83.1H70a5.84,5.84,0,0,0,5.42-3.53v0l0,0c.65-1.6,1.36-3.2,2.11-4.74.4-.85.82-1.67,1.24-2.48a61.47,61.47,0,0,1,8.32,2.46c.72.28,1.45.57,2.18.89-.13.92-.27,1.84-.42,2.73s-.3,1.72-.46,2.57-.36,1.76-.53,2.49a5.67,5.67,0,0,0-.09,2.17,5.88,5.88,0,0,0,2.8,4.16l0,0,.05,0c.32.18.7.44,1.11.71l.25.16.51.34c.31.2.6.39.81.55s.54.41.8.59l.73.55,1.49,1.19a6,6,0,0,0,3.71,1.31,5.6,5.6,0,0,0,3-.86c1.21-.74,2.32-1.39,3.38-2l0,0h0c.33-.2.67-.39,1-.57.81-.44,1.63-.86,2.49-1.29a60.14,60.14,0,0,1,5.74,7.55l.82,1.34c-.59.61-1.24,1.26-2,2s-1.18,1.14-1.78,1.71-1.33,1.21-2,1.8a5.8,5.8,0,0,0-1.55,6.64l0,.06,0,.05c.3.69.57,1.45.86,2.25.11.32.23.65.35,1s.17.57.26.85c.27.87.52,1.69.7,2.46V218l0,.06a5.8,5.8,0,0,0,5.14,4.37h.14l.21,0h.07c1.53.11,3.09.28,4.78.51.95.13,1.87.27,2.75.41,0,.43.08.86.11,1.29v.06a55.21,55.21,0,0,1,.17,5.64c0,1.35-.09,2.7-.21,4.06-.91.16-1.81.31-2.72.44-1.64.25-3.38.45-5.18.61a5.84,5.84,0,0,0-5.06,4.29v.05l-1.8,6H255.64c9.78,0,17.82-8.56,17.93-19.09V122.68c0-10.64-8.05-19.29-17.93-19.29Z"/><rect class="ea4ab7a7-3fc6-4988-8d35-ca0c3039ad8f" x="216.31" y="122.51" width="40.07" height="34.62" rx="6.89"/><path class="ea4ab7a7-3fc6-4988-8d35-ca0c3039ad8f" d="M268.94,195.38v29H129.36c-.09-1.28-.23-2.56-.42-3.83a1.38,1.38,0,0,0-1-1.24c-1.8-.35-3.64-.64-5.45-.88s-3.62-.45-5.42-.58a1.21,1.21,0,0,1-1.06-.91c-.29-1.26-.7-2.5-1.08-3.74s-.84-2.45-1.37-3.64a1.18,1.18,0,0,1,.3-1.36c1.36-1.19,2.69-2.42,4-3.71s2.61-2.6,3.84-4a1.4,1.4,0,0,0,0-1.59c-.65-1.2-1.36-2.39-2.09-3.55Z"/><path d="M69.6,281.18a3.68,3.68,0,0,1-.66-.06,66,66,0,0,1-16.54-5.27,3.66,3.66,0,0,1-2.2-3.61c.22-2,.49-3.87.78-5.64s.58-3.22.9-4.67l-.86-.55-.61-.41c-.45-.3-.9-.59-1.32-.92l-.3-.22c-.42-.31-.85-.62-1.26-.94l-1-.77c-1.3.78-2.66,1.56-4.14,2.37s-3.16,1.64-5,2.53a3.46,3.46,0,0,1-1.42.31,3.94,3.94,0,0,1-2.76-1.18,65.92,65.92,0,0,1-10.31-14,3.69,3.69,0,0,1,.37-4.25c1.17-1.29,2.49-2.66,3.93-4.07,1.16-1.15,2.31-2.21,3.47-3.25-.29-.72-.56-1.48-.82-2.21l-.32-.93-.3-1c-.21-.69-.42-1.39-.62-2.11-1.62-.14-3.17-.31-4.73-.52-2.08-.28-3.91-.58-5.59-.92a3.69,3.69,0,0,1-2.84-3.18,65.64,65.64,0,0,1-.13-17.34,3.71,3.71,0,0,1,2.82-3.25q2.79-.57,5.54-1c1.56-.23,3.12-.42,4.75-.58l.3-1.16c.12-.47.25-.88.38-1.3l.19-.65c.13-.44.29-.9.46-1.37l.28-.78.36-1c-1.1-.95-2.26-2-3.51-3.2-1.47-1.41-2.78-2.73-4-4a3.65,3.65,0,0,1-.39-4.27,65,65,0,0,1,10-14,3.93,3.93,0,0,1,2.82-1.26,3.28,3.28,0,0,1,1.39.3c1.76.78,3.42,1.58,5.06,2.43,1.4.73,2.81,1.5,4.18,2.31l.91-.76,1.66-1.26c.35-.28.78-.58,1.21-.87l1.49-1c-.15-.63-.29-1.28-.42-1.92-.19-.89-.37-1.81-.54-2.74-.34-1.89-.62-3.77-.84-5.59a3.65,3.65,0,0,1,2.17-3.69,66.29,66.29,0,0,1,7.83-3.21l.36-.17H60A64.68,64.68,0,0,1,68,152.28a3.81,3.81,0,0,1,.75-.07,3.55,3.55,0,0,1,3.16,1.72c.89,1.57,1.79,3.24,2.67,5,.42.86.82,1.7,1.21,2.52.28.6.56,1.2.82,1.8l1.27-.06.52,0c.43,0,.86,0,1.29,0l2.17,0,1.3.06c.61-1.42,1.25-2.84,2-4.33s1.53-3.07,2.6-5a3.62,3.62,0,0,1,3.23-1.8,3.85,3.85,0,0,1,.67,0c1.8.33,3.51.71,5.11,1.14a62.67,62.67,0,0,1,11.43,4.13,3.65,3.65,0,0,1,2.19,3.67c-.17,1.61-.42,3.39-.77,5.57-.27,1.65-.57,3.19-.9,4.68l.35.23c.22.14.48.3.72.47l.18.12c.52.34,1,.68,1.53,1.06s1,.74,1.56,1.15l1,.78c1.43-.86,2.79-1.64,4.16-2.37s3.16-1.64,5-2.52a3.34,3.34,0,0,1,1.44-.32,3.92,3.92,0,0,1,2.76,1.2,65.39,65.39,0,0,1,10.29,14,3.67,3.67,0,0,1-.37,4.24c-1.26,1.39-2.58,2.77-3.94,4.08-1.2,1.19-2.34,2.25-3.46,3.25.27.67.52,1.36.76,2l.38,1,.35,1.17c.19.63.39,1.29.57,2,1.6.13,3.16.3,4.73.51,2.08.28,3.91.58,5.59.92a3.69,3.69,0,0,1,2.84,3.18,65.29,65.29,0,0,1,.17,17.07,1.84,1.84,0,0,1,0,.39,3.75,3.75,0,0,1-2.8,3.13c-1.93.39-3.74.72-5.55,1-1.56.23-3.12.42-4.75.58l-.31,1.24-.12.38c-.05.19-.14.46-.22.73s-.16.5-.23.75c-.15.53-.34,1.08-.54,1.63l-.26.7c-.09.27-.19.54-.29.81l.23.21c1.12,1,2.23,2,3.29,3l.49.47c1.21,1.17,2.4,2.38,3.49,3.56a3.67,3.67,0,0,1,.41,4.23,66,66,0,0,1-10,14.09,4,4,0,0,1-2.82,1.26h0a3.41,3.41,0,0,1-1.38-.29c-1.71-.77-3.38-1.57-5.07-2.45-1.5-.79-2.88-1.54-4.18-2.31l-1,.84-1.55,1.17c-.37.3-.81.6-1.25.9l-1.46,1c.14.61.28,1.24.42,1.87.2,1,.38,1.88.54,2.82.32,1.79.61,3.67.84,5.55a3.69,3.69,0,0,1-2.17,3.7,68.45,68.45,0,0,1-8,3.26,67,67,0,0,1-8.45,2.19,3.67,3.67,0,0,1-.78.08,3.57,3.57,0,0,1-3.15-1.76c-.91-1.59-1.81-3.27-2.66-5-.42-.83-.82-1.67-1.21-2.5q-.42-.9-.81-1.8l-1.81.08c-.42,0-.85,0-1.28,0H78.63L77.39,270c-.58,1.41-1.23,2.85-2,4.35-.83,1.72-1.68,3.36-2.6,5A3.64,3.64,0,0,1,69.6,281.18ZM80,181.76a34.39,34.39,0,0,0-5.42.47,40.59,40.59,0,0,0-4.29,1l-1.08.33a38.7,38.7,0,0,0-5,2.14,35.19,35.19,0,0,0-4.63,2.88l-.29.21a35.05,35.05,0,0,0-12.22,17.3,34.82,34.82,0,0,0-1.63,10.73,34.86,34.86,0,0,0,.46,5.47,35.46,35.46,0,0,0,3.46,10.39,35.31,35.31,0,0,0,2.88,4.62A34.88,34.88,0,0,0,60,244.91a34.94,34.94,0,0,0,20.35,6.55h.21A36.44,36.44,0,0,0,86,251a42,42,0,0,0,5.37-1.33,40.25,40.25,0,0,0,5-2.14,37.25,37.25,0,0,0,4.62-2.88,34.75,34.75,0,0,0,12.51-17.51,32.91,32.91,0,0,0,1.24-5.33,29.72,29.72,0,0,0,.38-4c0-.51,0-.95,0-1.41a38.09,38.09,0,0,0-.46-5.49,39.93,39.93,0,0,0-.93-4l-.08-.27c-.1-.35-.21-.7-.32-1.05a39.65,39.65,0,0,0-2.13-5,36,36,0,0,0-2.89-4.63,31.66,31.66,0,0,0-3.57-4.12c-.65-.65-1.35-1.28-2.05-1.86a26.27,26.27,0,0,0-2.11-1.63,34.06,34.06,0,0,0-6.23-3.57c-.67-.3-1.4-.59-2.24-.89a34.76,34.76,0,0,0-11.59-2.09Z"/><path class="ea4ab7a7-3fc6-4988-8d35-ca0c3039ad8f" d="M91,154.36a1.43,1.43,0,0,1,.29,0c1.65.3,3.28.66,4.89,1.09a60.28,60.28,0,0,1,11,4,1.4,1.4,0,0,1,.89,1.31c-.2,1.83-.47,3.67-.76,5.47s-.64,3.57-1.06,5.36a1.19,1.19,0,0,0,.57,1.26c.33.19.64.39,1,.6l.67.44c.55.36,1.09.71,1.6,1.1l1.58,1.16,1.5,1.22a1.34,1.34,0,0,0,.81.29,1.07,1.07,0,0,0,.57-.16c1.54-.95,3.12-1.87,4.74-2.74s3.25-1.68,4.92-2.47a1.1,1.1,0,0,1,.45-.09,1.57,1.57,0,0,1,1.1.5,62.4,62.4,0,0,1,9.91,13.48,1.4,1.4,0,0,1-.05,1.59c-1.23,1.35-2.52,2.7-3.83,4s-2.56,2.46-3.91,3.63l-.09.08a1.21,1.21,0,0,0-.3,1.36c.53,1.18.94,2.42,1.39,3.64s.77,2.46,1.06,3.74a1.19,1.19,0,0,0,1.06.9c1.82.14,3.6.33,5.42.57s3.65.53,5.45.89a1.43,1.43,0,0,1,1,1.24,63.47,63.47,0,0,1,.15,16.58.81.81,0,0,1,0,.15,1.45,1.45,0,0,1-1,1.26c-1.82.37-3.62.7-5.43,1s-3.62.48-5.43.64a1.21,1.21,0,0,0-1,.93l-.48,1.89c0,.1,0,.19-.09.3-.15.52-.32,1-.47,1.56s-.41,1.23-.63,1.85-.43,1.21-.7,1.8a1.21,1.21,0,0,0,.32,1.36l.84.73c1.09,1,2.16,1.92,3.21,2.93l.46.44c1.16,1.12,2.31,2.29,3.43,3.49a1.42,1.42,0,0,1,.07,1.58,63.82,63.82,0,0,1-9.7,13.59,1.6,1.6,0,0,1-1.12.52,1.07,1.07,0,0,1-.43-.09c-1.69-.75-3.32-1.54-5-2.39s-3.22-1.73-4.77-2.66a1.09,1.09,0,0,0-.56-.15,1.3,1.3,0,0,0-.82.3l-1.5,1.25-1.55,1.17c-.51.41-1,.75-1.59,1.13s-1.06.73-1.62,1.06a1.17,1.17,0,0,0-.55,1.28c.22.88.41,1.77.61,2.66s.36,1.78.51,2.68q.48,2.7.83,5.46a1.39,1.39,0,0,1-.88,1.32,62.35,62.35,0,0,1-15.82,5.26,1.55,1.55,0,0,1-.37,0,1.25,1.25,0,0,1-1.12-.56q-1.39-2.43-2.62-4.88c-.41-.81-.8-1.63-1.18-2.45s-.76-1.66-1.12-2.5a1.17,1.17,0,0,0-1.09-.7h-.11c-.64.08-1.29.09-1.94.12s-1.15.06-1.73.06H78.71l-1.95-.12h0a1.24,1.24,0,0,0-1.16.71c-.69,1.68-1.43,3.34-2.23,5s-1.63,3.26-2.53,4.89a1.37,1.37,0,0,1-1.21.6l-.29,0a63.91,63.91,0,0,1-15.91-5.08,1.4,1.4,0,0,1-.89-1.31c.2-1.83.46-3.67.76-5.47s.64-3.57,1-5.35a1.17,1.17,0,0,0-.56-1.27c-.57-.32-1.1-.68-1.65-1s-1.09-.71-1.6-1.1-1-.77-1.56-1.16l-1.52-1.22a1.29,1.29,0,0,0-.8-.29,1,1,0,0,0-.58.17c-1.54,1-3.12,1.85-4.74,2.73s-3.23,1.68-4.91,2.47A1.08,1.08,0,0,1,36,261a1.64,1.64,0,0,1-1.12-.5A63.07,63.07,0,0,1,24.93,247a1.39,1.39,0,0,1,.05-1.58c1.23-1.36,2.54-2.7,3.84-4s2.63-2.51,4-3.71a1.18,1.18,0,0,0,.31-1.35c-.54-1.19-.94-2.43-1.38-3.64S31,230.3,30.66,229a1.2,1.2,0,0,0-1.06-.9c-1.8-.14-3.6-.32-5.42-.57s-3.65-.53-5.45-.89a1.38,1.38,0,0,1-1-1.24,63,63,0,0,1-.13-16.74,1.43,1.43,0,0,1,1-1.25q2.7-.56,5.41-1t5.43-.64a1.2,1.2,0,0,0,1-.93L31,203c.17-.63.37-1.24.56-1.87s.41-1.23.62-1.84.44-1.22.7-1.82a1.21,1.21,0,0,0-.3-1.35c-1.41-1.18-2.74-2.4-4.06-3.66s-2.63-2.57-3.89-3.93a1.35,1.35,0,0,1-.06-1.57,62.89,62.89,0,0,1,9.69-13.6,1.62,1.62,0,0,1,1.12-.52,1,1,0,0,1,.42.09c1.69.76,3.34,1.54,5,2.39S44,177.07,45.51,178a1,1,0,0,0,.54.16,1.29,1.29,0,0,0,.82-.31l1.5-1.25,1.19-.9.36-.27c.51-.4,1.06-.75,1.59-1.12s1-.71,1.55-1l.08-.05a1.19,1.19,0,0,0,.55-1.27c-.21-.88-.42-1.78-.61-2.67s-.35-1.77-.52-2.68c-.32-1.79-.6-3.61-.82-5.45a1.38,1.38,0,0,1,.87-1.33,65.26,65.26,0,0,1,7.71-3.15h0a64.1,64.1,0,0,1,8.09-2.11l.34,0a1.31,1.31,0,0,1,1.16.56c.91,1.61,1.78,3.25,2.6,4.87.41.82.8,1.65,1.19,2.46s.76,1.67,1.11,2.5a1.19,1.19,0,0,0,1.09.7H76c.65-.08,1.3-.11,1.95-.13s1.15-.06,1.73-.06h2.15l1.95.11h.06a1.18,1.18,0,0,0,1.13-.7q1-2.52,2.23-5c.8-1.67,1.65-3.27,2.54-4.89a1.32,1.32,0,0,1,1.2-.61M80.33,253.78h.22a38.92,38.92,0,0,0,5.8-.5,43.19,43.19,0,0,0,5.68-1.4,42.55,42.55,0,0,0,5.38-2.28,38.53,38.53,0,0,0,4.94-3.08,37.23,37.23,0,0,0,13.37-18.69,35.47,35.47,0,0,0,1.32-5.68,36,36,0,0,0,.4-4.28c0-.5,0-1,0-1.51a38.92,38.92,0,0,0-.48-5.81,41.73,41.73,0,0,0-1-4.26c-.14-.47-.28-.94-.43-1.41a41.22,41.22,0,0,0-2.27-5.39,37.94,37.94,0,0,0-3.07-4.93,35.56,35.56,0,0,0-3.81-4.41c-.71-.69-1.45-1.37-2.21-2a26.78,26.78,0,0,0-2.26-1.75,35.17,35.17,0,0,0-6.64-3.79c-.77-.35-1.57-.66-2.37-1a37.33,37.33,0,0,0-12.36-2.23H80a38.9,38.9,0,0,0-5.79.5A43,43,0,0,0,69.68,181l-1.12.33a42.74,42.74,0,0,0-5.39,2.29,38.74,38.74,0,0,0-4.94,3.07,4,4,0,0,0-.39.3,37.27,37.27,0,0,0-13,18.39,34.67,34.67,0,0,0-1.32,5.68,34.09,34.09,0,0,0-.42,5.8,36.43,36.43,0,0,0,.5,5.8,40.11,40.11,0,0,0,1.4,5.67,42.63,42.63,0,0,0,2.27,5.39,38.12,38.12,0,0,0,3.08,4.94,34.64,34.64,0,0,0,3.82,4.39,33.29,33.29,0,0,0,4.46,3.75,37.2,37.2,0,0,0,21.67,7M91,149.73h0a6,6,0,0,0-5.26,3c-1.09,2-1.91,3.57-2.66,5.13-.48,1-.93,2-1.36,3h-2c-.47,0-.92,0-1.38.05h-.23l-.18-.38q-.6-1.28-1.23-2.55c-.93-1.83-1.84-3.54-2.73-5.11a6,6,0,0,0-5.19-2.91,6.73,6.73,0,0,0-1.18.11,67.38,67.38,0,0,0-8,2h-.38l-.73.36a70,70,0,0,0-8,3.29,6,6,0,0,0-3.41,6c.22,1.85.51,3.77.86,5.71.17.94.35,1.88.55,2.81,0,.13.05.26.08.4l-.17.12c-.41.28-.88.59-1.36,1l-.3.23-1.06.8c-1-.54-1.93-1.06-2.89-1.56-1.65-.86-3.35-1.68-5.19-2.5a5.75,5.75,0,0,0-2.32-.49,6.26,6.26,0,0,0-4.44,1.91l0,.05,0,0a67.44,67.44,0,0,0-10.38,14.57,6,6,0,0,0,.76,6.92c1.23,1.32,2.57,2.67,4.08,4.11.83.79,1.62,1.53,2.39,2.22l-.1.3c-.17.44-.35.94-.51,1.51l-.18.61-.3,1c-1.1.13-2.18.27-3.23.42-1.91.29-3.75.63-5.68,1A6,6,0,0,0,13,208.1a68,68,0,0,0,.14,18,6,6,0,0,0,4.69,5.12c1.73.34,3.6.65,5.72.94,1.08.14,2.16.27,3.25.38.07.21.14.43.2.64s.19.62.29.93l0,.12.05.13c.09.26.19.52.28.79s.18.51.28.77c-.79.73-1.58,1.47-2.37,2.25-1.48,1.45-2.83,2.86-4,4.17a6,6,0,0,0-.67,6.94,67.88,67.88,0,0,0,10.62,14.44l0,0,0,0a6.27,6.27,0,0,0,4.4,1.85,5.65,5.65,0,0,0,2.38-.51c1.93-.91,3.62-1.76,5.18-2.61,1-.54,1.94-1.07,2.85-1.59l1.05.77.31.23c.5.38,1,.7,1.41,1l.14.1c-.2,1-.39,2.06-.58,3.21-.31,1.82-.58,3.74-.8,5.71V272A6,6,0,0,0,51.42,278a68.83,68.83,0,0,0,17,5.45h.09a6.18,6.18,0,0,0,1,.09,6,6,0,0,0,5.26-3c.94-1.68,1.81-3.35,2.66-5.12.48-1,.94-2,1.37-3h2c.46,0,.93,0,1.39,0h.22l.17.38c.41.86.82,1.72,1.24,2.56.87,1.73,1.79,3.44,2.73,5.1a5.9,5.9,0,0,0,5.16,2.9,6.22,6.22,0,0,0,1.22-.11,69.64,69.64,0,0,0,8.63-2.23l.07,0,.07,0a70.63,70.63,0,0,0,8.25-3.38,6,6,0,0,0,3.44-6q-.37-2.94-.87-5.73c-.15-.87-.33-1.8-.54-2.83l-.09-.41.16-.11c.42-.29.89-.61,1.38-1l1.35-1c.91.51,1.86,1,2.86,1.55,1.77.91,3.47,1.73,5.23,2.52a5.62,5.62,0,0,0,2.31.48,6.26,6.26,0,0,0,4.44-1.91l0,0,0,0a68.54,68.54,0,0,0,10.4-14.59,6,6,0,0,0-.79-6.9c-1.08-1.17-2.29-2.4-3.57-3.63l-.52-.5c-.77-.74-1.57-1.48-2.37-2.2v0c.19-.54.41-1.16.6-1.84.06-.18.13-.41.2-.64s.17-.54.24-.8a.76.76,0,0,0,0-.11c1.09-.12,2.17-.26,3.23-.42,1.88-.29,3.73-.62,5.67-1a6.05,6.05,0,0,0,4.64-5,4.82,4.82,0,0,0,.07-.6,67.59,67.59,0,0,0-.19-17.6,6,6,0,0,0-4.69-5.12c-1.73-.34-3.6-.65-5.72-.93-1.09-.15-2.16-.27-3.25-.38-.05-.16-.09-.32-.14-.47-.11-.36-.22-.71-.32-1.06l-.05-.17-.06-.16c-.11-.31-.23-.62-.34-.94l-.21-.59c.77-.7,1.55-1.45,2.36-2.25,1.38-1.34,2.74-2.74,4-4.17a6,6,0,0,0,.67-6.94,67.58,67.58,0,0,0-10.62-14.44,6.22,6.22,0,0,0-4.45-1.94,5.66,5.66,0,0,0-2.44.55c-1.9.89-3.58,1.74-5.13,2.57-.95.51-1.89,1-2.86,1.6-.45-.34-.91-.67-1.38-1s-1.06-.75-1.53-1.06c.21-1,.41-2.1.6-3.21.36-2.25.61-4.06.79-5.74a6,6,0,0,0-3.53-6A64.59,64.59,0,0,0,97.32,151c-1.63-.44-3.4-.83-5.21-1.16H92a7.17,7.17,0,0,0-1-.08Zm-21,36,.94-.28a38,38,0,0,1,4.09-1,31.92,31.92,0,0,1,5.06-.43h.47A32.43,32.43,0,0,1,91.34,186c.78.28,1.46.55,2.06.82a31.59,31.59,0,0,1,5.82,3.32l0,0h0c.69.48,1.31,1,1.91,1.48l0,0,0,0c.65.53,1.3,1.12,1.92,1.73a30.66,30.66,0,0,1,3.3,3.81,33.41,33.41,0,0,1,2.71,4.35,38.63,38.63,0,0,1,2,4.73l.3,1,.08.27a36,36,0,0,1,.86,3.71,34.12,34.12,0,0,1,.42,5.08c0,.52,0,.9,0,1.25v.1a30.78,30.78,0,0,1-.36,3.71,31.48,31.48,0,0,1-1.14,4.93v0A32.47,32.47,0,0,1,99.6,242.79a34.55,34.55,0,0,1-4.31,2.69,40,40,0,0,1-4.72,2,39.4,39.4,0,0,1-5,1.23,32.68,32.68,0,0,1-5.08.43h-.14a32.51,32.51,0,0,1-18.95-6.08l0,0,0,0a29.17,29.17,0,0,1-3.85-3.24,28.4,28.4,0,0,1-3.3-3.8l0,0,0,0a33,33,0,0,1-2.7-4.33,35.94,35.94,0,0,1-2-4.73,35.31,35.31,0,0,1-1.23-5,33.74,33.74,0,0,1-.44-5.09,31.1,31.1,0,0,1,.37-5,31.43,31.43,0,0,1,1.14-4.94v-.05a32.59,32.59,0,0,1,11.35-16.09l.07-.05.06,0,.09-.07h0l.07,0a33.85,33.85,0,0,1,4.36-2.71,36.64,36.64,0,0,1,4.7-2Z"/><path d="M80.29,249.39a32.79,32.79,0,0,1-19-59.51,33,33,0,0,1,19-6,32.82,32.82,0,0,1,31.35,23.26A32.81,32.81,0,0,1,89.81,248,32.44,32.44,0,0,1,80.29,249.39Z"/><path class="ea4ab7a7-3fc6-4988-8d35-ca0c3039ad8f" d="M80.3,187.3a29.29,29.29,0,1,1-17,5.41,29.72,29.72,0,0,1,8.46-4.13,29.3,29.3,0,0,1,8.52-1.28m0-7a36.32,36.32,0,0,0-10.54,1.57A36.78,36.78,0,0,0,59.31,187a36.26,36.26,0,1,0,30-5.52,35.77,35.77,0,0,0-9-1.16Z"/></svg>